<?xml version="1.0" encoding="UTF-8"?>
<svg version="1.1" xmlns="http://www.w3.org/2000/svg" width="240" height="240">
<path d="M0 0 C0.66 0 1.32 0 2 0 C2.23372314 0.49250244 2.46744629 0.98500488 2.70825195 1.49243164 C7.6715262 11.937777 12.67940248 22.36027174 17.75 32.75390625 C18.16525436 33.60515579 18.58050873 34.45640533 19.00834656 35.33345032 C21.09411971 39.60764723 23.18218887 43.88070895 25.27270508 48.15258789 C25.86470955 49.36619743 25.86470955 49.36619743 26.46867371 50.60432434 C27.24543596 52.19204974 28.02709985 53.77738756 28.81391907 55.3601532 C30.54262456 58.8625496 32.17179344 62.3317361 33.52099609 65.99902344 C33.97168457 67.17239258 34.42237305 68.34576172 34.88671875 69.5546875 C35.23307373 70.56772949 35.57942871 71.58077148 35.9362793 72.62451172 C39.40325891 76.61525011 43.93736879 76.39867353 49 77 C50.92509736 77.27894174 52.85016935 77.55808272 54.77460289 77.84156799 C58.45471489 78.377545 62.13984543 78.87713037 65.82421875 79.3828125 C67.42278314 79.60395261 69.02131884 79.8253002 70.61982727 80.04684448 C74.79019373 80.62427468 78.96093922 81.19891941 83.1317749 81.77294922 C87.40253938 82.36124644 91.67293254 82.95222648 95.94335938 83.54296875 C104.29521546 84.69791188 112.64747461 85.84990731 121 87 C119.27067987 90.69245465 117.17695068 93.06738575 114.2734375 95.95703125 C113.8069278 96.42308273 113.34041809 96.88913422 112.85977173 97.36930847 C111.8719326 98.35413345 110.88167105 99.33653381 109.88916016 100.31665039 C108.39566953 101.79208043 106.9101425 103.2751574 105.42578125 104.75976562 C100.7351285 109.43242958 95.97241324 113.96119033 90.94384766 118.2722168 C87.12284959 121.66849956 83.58272896 125.35613232 80 129 C75.03391327 134.05083224 70.10765257 138.91541584 64.53125 143.296875 C62.49217517 145.56482557 62.34993878 146.96161146 62 150 C62.30296956 152.61462584 62.68191999 155.11747298 63.17163086 157.69604492 C63.30803482 158.45434097 63.44443878 159.21263702 63.5849762 159.99391174 C64.03632896 162.4910813 64.50057358 164.98567147 64.96484375 167.48046875 C65.28100937 169.21715553 65.59630993 170.954 65.91078186 172.69099426 C66.73959099 177.25701362 67.57911733 181.82099561 68.42120361 186.38458252 C69.44422614 191.93846165 70.4559795 197.4944021 71.46794224 203.05030537 C72.25486799 207.37066997 73.043978 211.69059272 73.83982849 216.00932312 C74.1262147 217.57026087 74.41259695 219.13119935 74.69897461 220.69213867 C74.83145599 221.4064505 74.96393738 222.12076233 75.10043335 222.85671997 C76 227.77408002 76 227.77408002 76 230 C72.48648979 228.64946864 69.15597693 227.11778924 65.81640625 225.3828125 C64.31847534 224.60538696 64.31847534 224.60538696 62.7902832 223.81225586 C61.72511475 223.25546143 60.65994629 222.69866699 59.5625 222.125 C57.89610474 221.25597046 57.89610474 221.25597046 56.19604492 220.36938477 C49.0336389 216.62124075 41.90675552 212.81295801 34.8125 208.9375 C33.93029785 208.45732422 33.0480957 207.97714844 32.13916016 207.48242188 C27.36724684 204.87592191 22.62855808 202.22079457 17.9140625 199.51171875 C16.9139917 198.94525635 15.9139209 198.37879395 14.88354492 197.79516602 C12.96102407 196.70525426 11.04661841 195.60086505 9.1418457 194.48022461 C7.84766724 193.75138062 7.84766724 193.75138062 6.52734375 193.0078125 C5.77187256 192.57098145 5.01640137 192.13415039 4.23803711 191.68408203 C1.14446633 190.7384962 -0.15456969 191.5565073 -3 193 C-3.82943115 193.40589355 -4.6588623 193.81178711 -5.51342773 194.22998047 C-6.39458252 194.68775879 -7.2757373 195.14553711 -8.18359375 195.6171875 C-9.18221436 196.13547119 -10.18083496 196.65375488 -11.2097168 197.18774414 C-12.27488525 197.74453857 -13.34005371 198.30133301 -14.4375 198.875 C-15.54843018 199.45435303 -16.65936035 200.03370605 -17.80395508 200.63061523 C-29.64227324 206.82570124 -41.36253894 213.23112884 -53.05908203 219.68896484 C-55.12615525 220.82996348 -57.19409082 221.96940143 -59.26293945 223.10717773 C-61.21795296 224.18239522 -63.17100043 225.26119713 -65.12182617 226.34399414 C-65.99427979 226.82344482 -66.8667334 227.30289551 -67.765625 227.796875 C-68.53680664 228.22323242 -69.30798828 228.64958984 -70.10253906 229.08886719 C-72 230 -72 230 -74 230 C-73.17323336 224.91557567 -72.33834453 219.83252499 -71.5 214.75 C-71.37116425 213.96688446 -71.24232849 213.18376892 -71.10958862 212.37692261 C-69.43544376 202.22792372 -67.67085521 192.10021371 -65.78515625 181.98828125 C-65.60032684 180.99297394 -65.41549744 179.99766663 -65.22506714 178.97219849 C-64.31308106 174.06665757 -63.39068602 169.16341184 -62.453125 164.26269531 C-62.11552743 162.45774921 -61.7782711 160.65273924 -61.44140625 158.84765625 C-61.28027847 158.02517899 -61.1191507 157.20270172 -60.95314026 156.3553009 C-59.88325296 150.63949792 -59.88325296 150.63949792 -61 145 C-62.40945909 143.13357482 -62.40945909 143.13357482 -64.2890625 141.5390625 C-64.97621338 140.90991943 -65.66336426 140.28077637 -66.37133789 139.63256836 C-67.11504639 138.9700708 -67.85875488 138.30757324 -68.625 137.625 C-70.18036278 136.20398421 -71.73370644 134.78075565 -73.28515625 133.35546875 C-74.07293457 132.63407715 -74.86071289 131.91268555 -75.67236328 131.16943359 C-79.84483277 127.28055548 -83.83551391 123.21261713 -87.82470703 119.13720703 C-90.73702237 116.18332282 -93.69618925 113.35623341 -96.83984375 110.6484375 C-101.60133645 106.53558696 -106.05074831 102.13312852 -110.5 97.6875 C-111.32242188 96.87732422 -112.14484375 96.06714844 -112.9921875 95.23242188 C-114.15621094 94.07129883 -114.15621094 94.07129883 -115.34375 92.88671875 C-116.04693359 92.18764404 -116.75011719 91.48856934 -117.47460938 90.76831055 C-119 89 -119 89 -119 87 C-118.00441574 86.86441177 -117.00883148 86.72882355 -115.983078 86.58912659 C-106.60941304 85.31214744 -97.23616622 84.03213818 -87.86332226 82.74914646 C-83.04442404 82.08961636 -78.22538391 81.43116185 -73.40600586 80.77514648 C-68.75672088 80.14224425 -64.10782673 79.50654148 -59.45919228 78.86887932 C-57.68388872 78.62586219 -55.90844572 78.38386157 -54.132864 78.14288521 C-51.64964333 77.80569502 -49.16693907 77.46492309 -46.68432617 77.12329102 C-45.94705292 77.02402817 -45.20977966 76.92476532 -44.45016479 76.82249451 C-41.50594847 76.41415384 -38.82812228 75.94270743 -36 75 C-34.32881038 72.27886764 -34.32881038 72.27886764 -32.76953125 68.84375 C-32.46184311 68.20183716 -32.15415497 67.55992432 -31.83714294 66.89855957 C-30.81944131 64.77008554 -29.81610252 62.63515342 -28.8125 60.5 C-28.10684715 59.01772747 -27.40012659 57.53596281 -26.69238281 56.0546875 C-25.21163688 52.95371682 -23.73561299 49.850558 -22.26220703 46.74609375 C-20.04269364 42.07868105 -17.79035668 37.42770103 -15.52734375 32.78125 C-15.16635086 32.03975708 -14.80535797 31.29826416 -14.4334259 30.53430176 C-13.03190344 27.65646933 -11.62968799 24.77897497 -10.22720337 21.90161133 C-6.69661239 14.65226081 -3.21225689 7.39792495 0 0 Z " fill="#FEC53D" transform="translate(119,5)"/>
</svg>
