<svg xmlns="http://www.w3.org/2000/svg" width="1023" height="1051" version="1.1"><path fill="#C93B51" d="M0 0 C0.66 0 1.32 0 2 0 C2.4846875 0.96679688 2.969375 1.93359375 3.46875 2.9296875 C7.59975273 11.01570621 11.95409415 18.16250496 18 25 C19.06541016 26.24523438 19.06541016 26.24523438 20.15234375 27.515625 C46.35836912 57.54432191 83.51293311 71.79712804 122.23828125 76.8984375 C123.52413116 77.06867935 124.80998108 77.2389212 126.13479614 77.4143219 C136.76527775 78.79582891 147.41827993 79.91412645 158.0859375 80.96484375 C159.32091382 81.0865006 159.32091382 81.0865006 160.58083916 81.21061516 C168.21327066 81.96007895 175.84691774 82.69677564 183.48144531 83.42456055 C241.59451389 88.97774182 297.75629623 96.90361813 345 134 C345.06731323 133.01942627 345.06731323 133.01942627 345.13598633 132.01904297 C347.90320917 92.82303725 347.90320917 92.82303725 357.3125 81.125 C358.199375 80.42375 359.08625 79.7225 360 79 C360.60972656 78.47664063 361.21945312 77.95328125 361.84765625 77.4140625 C366.06752684 73.9503537 369.32349281 71.88869594 375 72 C377 73.125 377 73.125 378 75 C378.13149058 79.60217026 375.27401565 82.4878486 372.47265625 85.83984375 C367.97412461 92.43848566 367.97025606 100.33922982 369 108 C370.55867067 115.78709363 373.00232892 123.36892363 375.36016846 130.94299316 C376.04320548 133.13890213 376.72076297 135.33645976 377.39794922 137.53417969 C383.28345889 156.59228607 389.43915656 175.558183 395.875 194.4375 C396.13363831 195.19912445 396.39227661 195.9607489 396.65875244 196.74545288 C399.2060101 204.22953654 401.83439807 211.65274632 404.77757263 218.99136353 C407.89239116 226.76999806 410.34629122 234.27980361 411.8125 242.5625 C412.00263672 243.53123047 412.19277344 244.49996094 412.38867188 245.49804688 C415.09015863 259.78529126 416.35605385 273.90804846 416.31567383 288.43139648 C416.31247792 290.82906201 416.33623471 293.2255291 416.36132812 295.62304688 C416.41878863 308.81884827 413.96753851 319.7207273 408.5625 331.8125 C408.13074463 332.78952881 407.69898926 333.76655762 407.25415039 334.77319336 C398.26073941 354.80782956 388.154166 374.11391511 374 391 C365.01253388 401.77745295 356.2570714 412.65027014 348 424 C347.49194824 424.69625488 346.98389648 425.39250977 346.46044922 426.10986328 C325.89121243 454.41431917 311.14709688 480.89629723 315.390625 517.05078125 C317.09698208 526.53418888 321.33756133 534.67596028 326 543 C326.35900391 543.64646484 326.71800781 544.29292969 327.08789062 544.95898438 C340.03307326 568.02706658 357.54493572 588.40677439 383.9375 595.875 C404.97741639 601.14331504 431.42517571 599.81400837 451 590 C460.74997136 584.06586564 464.83901399 577.0247829 467.51953125 566.125 C467.75736328 565.073125 467.75736328 565.073125 468 564 C467.236875 564.33 466.47375 564.66 465.6875 565 C460.74825349 566.33945668 456.08536891 566.16287658 451 566 C450.34 564.68 449.68 563.36 449 562 C449.67095703 561.30777344 449.67095703 561.30777344 450.35546875 560.6015625 C462.53042507 547.46610856 464.89143029 530.08666618 468.3192749 513.11593628 C479.51835741 457.9762883 496.58946401 397.13373879 542 360 C543.11617756 359.06024271 544.23203149 358.12010097 545.34765625 357.1796875 C574.21638335 333.05609705 607.34883776 313.26317192 643 301 C643.42190456 296.928507 643.42190456 296.928507 641.75610352 293.39868164 C634.12568539 287.32129176 621.02163056 287.69229106 611.78710938 286.62695312 C591.4615365 284.07692062 591.4615365 284.07692062 585 276 C584.48308594 275.39671875 583.96617187 274.7934375 583.43359375 274.171875 C573.41408553 262.06777111 566.29612315 248.97425865 566.7109375 233.00390625 C567.10010489 228.95972083 567.81671203 226.4308811 570 223 C571.875 221.75 571.875 221.75 574 222 C579.45946334 226.19958719 582.8441624 232.53248721 585 239 C586.83183306 240.09086612 586.83183306 240.09086612 589 241 C590.39611383 241.83286332 591.79193392 242.66621917 593.1875 243.5 C600.39769482 247.5122197 607.8935833 248.22796031 616 249 C616 248.34 616 247.68 616 247 C615.05125 246.9175 614.1025 246.835 613.125 246.75 C603.68203162 245.3221318 596.34280172 241.10539048 590 234 C586.03528571 228.3777686 582.83581623 223.32868005 582.9375 216.3125 C582.94652344 215.50425781 582.95554687 214.69601563 582.96484375 213.86328125 C582.98224609 212.94095703 582.98224609 212.94095703 583 212 C586.99534208 212.57076315 589.588173 213.90041415 593 216 C602.2050056 219.49155385 613.15898296 215.34704381 622.20703125 213.22070312 C637.56257041 209.74603096 653.11336991 207.85025537 667.39453125 215.98046875 C677.6539578 222.49557904 679.28758323 232.91948894 682 244 C685.69241944 235.52169784 687.17173285 229.80668996 683.8984375 221.0546875 C680.95692044 214.49789807 677.58612291 210.07576047 671.953125 205.62109375 C670 204 670 204 668 201 C667.875 198.3125 667.875 198.3125 668 196 C672.79248047 193.60375977 678.85905534 194.06185904 683.88818359 195.56396484 C694.29956513 199.48431607 701.82302271 206.05586968 709.640625 213.76953125 C716.07309975 220.08804483 721.8336343 223.78914554 730.8515625 224.4296875 C731.78613281 224.50316406 732.72070312 224.57664063 733.68359375 224.65234375 C735.62064857 224.7989734 737.55815678 224.93974965 739.49609375 225.07421875 C751.31869724 226.02843709 761.62249912 229.06542171 770 237.875 C772.94339223 242.47405036 773.62232039 246.07608197 772.5078125 251.3125 C770.45995404 257.39756514 766.86467478 261.72848079 762.6574707 266.44140625 C758.56581634 271.16566449 756.57833867 276.01644744 755 282 C756.5882438 281.43017207 758.17044047 280.84347612 759.75 280.25 C760.63171875 279.92515625 761.5134375 279.6003125 762.421875 279.265625 C767.89899383 276.57685757 769.76521745 272.74917861 772.1875 267.3125 C776.7963365 257.59606249 783.80474323 250.00115737 794 246 C797.73733787 245.36535772 799.16405628 245.528442 802.4375 247.375 C804.91858324 251.54321984 803.90701778 255.37852844 803 260 C802.67 261.134375 802.34 262.26875 802 263.4375 C799.94769948 270.74882061 799.97369758 278.07500941 800.125 285.625 C800.16763292 294.02368615 799.13807026 299.99837669 793.55932617 306.4675293 C790.6532472 309.32355837 787.24297742 311.31335543 783.75 313.375 C782.96512207 313.84542725 782.18024414 314.31585449 781.37158203 314.80053711 C775.99019978 317.96899943 770.51261999 320.87749827 764.875 323.5625 C764.20178711 323.88460449 763.52857422 324.20670898 762.83496094 324.53857422 C754.58438213 328.32401348 746.21141328 330.67825173 737.3125 327.8125 C732.27256074 325.05479739 729.32997009 321.48839688 726.0625 316.875 C723.41179234 313.30932726 721.35164705 311.3652226 717 310 C712.13493819 309.30749571 708.89026747 309.56267563 704.4375 311.75 C703.633125 312.4925 702.82875 313.235 702 314 C702 318.94263119 703.23718508 319.93532151 706.3125 323.6875 C711.75637352 330.65582632 713.55109015 336.21360626 714.95874023 344.87426758 C716.36715517 353.3373931 718.60280293 359.23055344 724.4765625 365.6015625 C733.50493704 375.40241828 738.47391207 388.02909951 738.25 401.25390625 C737.6677378 409.97874139 736.52940424 417.82353653 730 424 C729.01 423.67 728.02 423.34 727 423 C726.0078125 420.234375 726.0078125 420.234375 725.125 416.75 C722.9192739 409.18278985 720.15088972 406.16797826 713.4375 402.25 C707.28325632 398.87956499 701.19323047 397.8063518 694.3515625 399.75390625 C690.77757006 401.03033212 687.27183731 402.3112881 683.9296875 404.12109375 C676.18865649 408.26482212 667.58493256 407.81478031 659 408 C655.84857351 414.30285298 657.28124872 426.74576743 659.125 433.4375 C659.69915866 434.97824685 660.32600659 436.50023605 661 438 C661.37898437 438.86496094 661.75796875 439.72992188 662.1484375 440.62109375 C665.18133042 446.80083221 669.16719469 451.57778017 673.8828125 456.51245117 C681.40714422 464.46582441 687.19124243 473.45159599 688.375 484.5 C687.6698064 491.08180691 685.91896637 497.3469237 681 502 C675.27852135 505.48007464 670.27412814 507.14361755 663.5625 507.125 C662.63566406 507.12757813 661.70882812 507.13015625 660.75390625 507.1328125 C658.07134019 507.00344052 655.61431282 506.59782834 653 506 C653.82210266 507.60995104 654.65862154 509.2125383 655.5 510.8125 C655.9640625 511.70582031 656.428125 512.59914063 656.90625 513.51953125 C663.31781153 524.60611878 671.87178607 533.15518084 681.00390625 541.94238281 C700.93496335 561.18906024 700.93496335 561.18906024 705.5 573.8125 C705.84732178 574.75585205 705.84732178 574.75585205 706.20166016 575.71826172 C708.36495067 581.71189458 710.40332064 587.54686976 710 594 C708.28125 594.67578125 708.28125 594.67578125 706 595 C703.78125 593.85546875 703.78125 593.85546875 701.5 592.1875 C698.73551117 590.19460651 696.09308975 588.44109863 693 587 C693.50789062 588.09054687 694.01578125 589.18109375 694.5390625 590.3046875 C713.13589615 630.7913551 721.64170484 682.13882593 706 725 C704.33984375 728.02734375 704.33984375 728.02734375 703 730 C701.68 729.67 700.36 729.34 699 729 C699.02094727 728.34104736 699.04189453 727.68209473 699.06347656 727.00317383 C699.70944565 707.95151591 699.70944565 707.95151591 694 690 C693.89510254 691.68403931 693.89510254 691.68403931 693.78808594 693.40209961 C693.51929938 697.65443276 693.23124413 701.90529611 692.93798828 706.15600586 C692.81474253 707.97956275 692.6964031 709.80345934 692.58349609 711.62768555 C691.59284284 727.54388891 689.54535201 742.69155416 682.9375 757.375 C682.55392334 758.24511719 682.17034668 759.11523438 681.77514648 760.01171875 C669.33454188 787.52588648 651.50013776 810.95908433 625 826 C624.15566406 826.47985352 623.31132813 826.95970703 622.44140625 827.45410156 C611.62408422 833.51799684 600.97265971 838.671196 589 842 C588.91363281 842.99 588.82726562 843.98 588.73828125 845 C587.39968778 858.38593471 582.92508612 864.48973647 573.36987305 873.60986328 C571.87972394 875.03908963 570.43563297 876.51602214 569 878 C569 878.66 569 879.32 569 880 C570.08796875 880.08636719 571.1759375 880.17273438 572.296875 880.26171875 C573.78134493 880.40264944 575.26571503 880.54463441 576.75 880.6875 C577.46027344 880.74099609 578.17054688 880.79449219 578.90234375 880.84960938 C587.92351118 881.76769279 595.77021652 885.85199485 603.7890625 889.859375 C614.82080279 895.36871307 623.82830423 899.07509542 636.21875 898.9921875 C648.06616511 899.01666563 658.21159824 905.76971675 667.125 913.0625 C677.16010319 921.21404281 684.70621851 923.77303414 697.47460938 924.78466797 C709.4817141 925.80847562 720.82903353 927.48999511 732.08764648 931.87573242 C736.44339324 933.55085841 740.45575261 934.50942286 745.125 935.0625 C750.58155916 935.77008373 754.27700047 936.82942675 758 941 C762.40116031 946.82980921 764.17643613 952.70310561 764 960 C763.5078125 962.29296875 763.5078125 962.29296875 763 964 C759.875 963.875 759.875 963.875 756 963 C755.13761719 962.02417969 754.27523437 961.04835938 753.38671875 960.04296875 C749.48981051 955.95109325 745.35677913 955.87864357 739.9375 955.4375 C733.60613915 954.75076365 728.07228287 953.9699231 722.1875 951.375 C714.94937696 948.20355925 707.78933068 948.10999055 700 948 C700.91026807 949.73254356 701.82853168 951.46088734 702.75 953.1875 C703.26046875 954.15042969 703.7709375 955.11335937 704.296875 956.10546875 C711.48502607 968.32202826 723.94635855 976.27877991 737 980.9375 C750.74844588 985.87215079 750.74844588 985.87215079 754.5 992.75 C755.63442999 1000.12379493 755.83308642 1006.4289947 752 1013 C749.890625 1014.1875 749.890625 1014.1875 748 1015 C747.69707031 1014.38511719 747.39414062 1013.77023437 747.08203125 1013.13671875 C746.45361328 1011.92435547 746.45361328 1011.92435547 745.8125 1010.6875 C745.40644531 1009.88699219 745.00039063 1009.08648438 744.58203125 1008.26171875 C742.16709417 1004.80925314 739.3826195 1003.27923855 735.2644043 1002.44750977 C734.29414307 1002.36299561 733.32388184 1002.27848145 732.32421875 1002.19140625 C731.24849609 1002.08376953 730.17277344 1001.97613281 729.06445312 1001.86523438 C726.82512196 1001.66448462 724.5855377 1001.46653718 722.34570312 1001.27148438 C713.39773787 1000.36867475 706.16055841 998.21644766 699.7890625 991.59765625 C696.77973051 987.22821132 694.8602873 982.32396685 692.92773438 977.39794922 C691.02208741 972.68057784 689.43721788 969.84811044 685 967 C682.47453838 983.48709512 682.47453838 983.48709512 687.09765625 998.7734375 C688.47274153 1002.16650506 688.42136192 1005.57862184 688.4375 1009.1875 C688.44716797 1009.87787354 688.45683594 1010.56824707 688.46679688 1011.27954102 C688.37926668 1016.58734616 687.16475283 1019.8668494 683.39453125 1023.58203125 C681.9296875 1024.72135417 680.46484375 1025.86067708 679 1027 C678.79246094 1026.3709375 678.58492187 1025.741875 678.37109375 1025.09375 C675.67562978 1017.60509696 671.87424347 1012.50490898 665.9921875 1007.18359375 C662.84302144 1004.13005014 661.17130744 1002.17933135 660.52734375 997.74609375 C660.49618624 993.76238327 660.51713088 989.89778792 661.50390625 986.01953125 C663.32487726 978.60660203 662.98474207 970.86381352 659.375 964.125 C658.28676255 962.39301645 657.16265615 960.68293151 656 959 C655.49726562 958.22398437 654.99453125 957.44796875 654.4765625 956.6484375 C650.80212163 951.30202882 647.6508126 948.72022834 641.12890625 947.43359375 C634.69900215 946.44923345 634.69900215 946.44923345 629.0625 949.125 C628.381875 950.07375 627.70125 951.0225 627 952 C622.89538252 956.9410301 619.02951531 958.32436468 613.0625 960 C605.74603214 962.06469643 600.47890192 964.15342806 596.1875 970.8125 C594.76631399 974.62726245 594.34912429 977.95015821 594 982 C588.31417757 980.67771571 586.2838907 978.59744698 583 974 C580.87019305 967.61057915 580.80395736 959.59990967 583.6875 953.4375 C587.04631351 947.23129727 593.73483265 944.39108902 599.75 941.3125 C601.28725328 940.51846421 602.82375386 939.72296892 604.359375 938.92578125 C605.37209473 938.40624878 605.37209473 938.40624878 606.40527344 937.8762207 C607.99213314 937.10093907 607.99213314 937.10093907 609 936 C609.28393978 933.48510484 609.4481124 930.97010418 609.62109375 928.4453125 C610 926 610 926 612 923 C589.92376339 908.13233045 567.97191082 905.78741559 542 905 C541.83673218 905.84401367 541.83673218 905.84401367 541.67016602 906.70507812 C540.58767806 911.96461167 539.10965971 916.58995839 536.9375 921.5 C536.41027344 922.7065625 535.88304687 923.913125 535.33984375 925.15625 C534 928 534 928 533 929 C531.00041636 929.04080783 528.99954746 929.04254356 527 929 C522.89472027 913.30906916 519.07524713 897.79631512 518.2109375 881.5390625 C518.09064629 878.87760719 518.09064629 878.87760719 517 876 C516.72027344 876.99 516.44054687 877.98 516.15234375 879 C512.70184614 890.60996148 508.53479936 897.46735308 497.7265625 903.58984375 C495.8882601 904.54059901 494.02748523 905.44895545 492.1484375 906.31640625 C481.84097568 911.08938659 472.8698946 917.86766415 466 927 C466.82242188 927.68964844 467.64484375 928.37929688 468.4921875 929.08984375 C471.43449927 931.56273191 474.3654678 934.0486417 477.29003906 936.54248047 C478.78181977 937.8140297 480.27731417 939.08121946 481.7734375 940.34765625 C492.19926794 949.40859091 498.76532507 958.61147613 504.46289062 971.0949707 C507.46171902 977.63211015 507.46171902 977.63211015 513 982 C517.72223196 983.32791943 522.53974261 984.12332611 527.36523438 984.97851562 C535.39631252 986.53241153 540.99691581 988.95038915 546.7734375 994.81640625 C551.63263223 998.10489276 555.92734094 997.28242072 561.625 996.9375 C573.92529855 996.58135672 583.54563393 998.81590328 595 1003 C599.0129125 1004.41931665 603.03499113 1005.81018748 607.0625 1007.1875 C608.57384521 1007.71029541 608.57384521 1007.71029541 610.11572266 1008.24365234 C616.53477049 1010.39303088 622.72823093 1011.77999548 629.4375 1012.625 C637.71155003 1013.69809956 643.28027863 1015.54120735 648.7890625 1022.14453125 C651.96410049 1026.56099404 653.87094441 1030.69343871 655 1036 C652.13879744 1037.43060128 650.15989415 1037.38692581 647 1037 C645.30859375 1034.4765625 645.30859375 1034.4765625 644 1032 C636.31102069 1032.51405694 628.65144206 1033.0765501 621 1034 C621.42152344 1034.556875 621.84304688 1035.11375 622.27734375 1035.6875 C626.03698562 1040.92445997 627.76512932 1044.54105639 628 1051 C621.72031654 1051.43308162 619.19504097 1050.80969671 614 1047 C609.80249982 1045.82456898 605.57122111 1045.81797849 601.2421875 1045.75390625 C599.71353652 1045.72094111 598.18489082 1045.68772995 596.65625 1045.65429688 C594.27380313 1045.60718496 591.89137339 1045.56277199 589.50878906 1045.52319336 C565.40993363 1045.10414829 565.40993363 1045.10414829 558.8125 1040.125 C552.57005061 1035.63043644 545.38376759 1034.53562568 538 1033 C536.29142822 1032.63575928 536.29142822 1032.63575928 534.54833984 1032.26416016 C528.19197075 1030.90928226 521.83177487 1029.57390922 515.46484375 1028.26953125 C513.85017212 1027.93852417 513.85017212 1027.93852417 512.20288086 1027.60083008 C497.8675197 1024.91165226 486.53412909 1024.91192609 473.03344727 1030.21972656 C465.04020745 1033.25441698 457.02954411 1034.55310018 448.57617188 1035.66894531 C438.54754588 1037.0235534 430.72435394 1039.17329681 424.125 1047.3125 C423.75375 1047.869375 423.3825 1048.42625 423 1049 C418.125 1048.125 418.125 1048.125 417 1047 C416.29770263 1039.66844105 420.1125846 1034.90664549 424 1029 C424.45503906 1028.30003906 424.91007813 1027.60007812 425.37890625 1026.87890625 C431.31820733 1018.91846988 440.8134913 1016.12730642 450.125 1014.1875 C457.97492897 1012.51319498 462.76748401 1009.01333718 468 1003 C468.68835938 1002.25105469 469.37671875 1001.50210938 470.0859375 1000.73046875 C474.39974502 994.57669027 476.92262465 985.6747606 477.046875 978.16796875 C476.61644321 975.89225994 476.00543445 974.08329427 475 972 C474.67515625 971.31808594 474.3503125 970.63617187 474.015625 969.93359375 C471.46320971 965.32700862 468.19899091 962.16540841 464.16015625 958.84375 C461.84925743 956.87133727 459.78785286 954.75678635 457.6875 952.5625 C449.2562152 943.59881027 449.2562152 943.59881027 438.1875 939.9375 C431.74334975 944.10724428 428.67837276 951.00647113 426 958 C424.02 958 422.04 958 420 958 C419.06239322 933.22554396 419.06239322 933.22554396 428.99560547 922.31762695 C430.80265183 920.3896883 432.63856413 918.4963792 434.4921875 916.61328125 C439.90839906 911.08651962 444.63111347 905.53175937 448.5 898.8125 C448.87125 898.20986328 449.2425 897.60722656 449.625 896.98632812 C451.64285366 893.62922182 451.64285366 893.62922182 451.48828125 889.8671875 C449.65597258 887.56838555 447.72182531 885.4357202 445.6875 883.3125 C436.38245346 873.00835391 432.31950831 860.90475761 431.87109375 847.00390625 C431.74533002 843.23505114 431.47507826 840.47697018 430 837 C425.96250401 833.7290431 421.55300303 832.00882969 416.74560547 830.11816406 C411.29747154 827.8993793 406.01052881 825.31303275 400.6875 822.8125 C398.87911697 821.97387401 397.07072674 821.13526199 395.26150513 820.29844666 C387.28336742 816.60766437 379.31754701 812.89177865 371.375 809.125 C369.73277466 808.35893433 369.73277466 808.35893433 368.05737305 807.57739258 C358.26040572 802.90340855 349.82601835 797.20128627 342 789.6875 C341.0728418 788.80940674 341.0728418 788.80940674 340.12695312 787.91357422 C334.85174114 782.88539272 329.66658169 777.76445076 324.5 772.625 C323.75878906 771.88854248 323.01757812 771.15208496 322.25390625 770.39331055 C317.63122579 765.7565238 313.27093514 760.96016689 309 756 C308.0021861 754.87825992 307.00225565 753.75839823 306 752.640625 C284.88069803 728.87878873 266.90745341 702.99881021 256 673 C255.70125977 672.18160645 255.40251953 671.36321289 255.09472656 670.52001953 C246.16200832 645.70338658 239.96139176 620.06178793 236 594 C235.96984518 598.47915128 235.95283231 602.95827543 235.9375 607.4375 C235.92912109 608.65888672 235.92074219 609.88027344 235.91210938 611.13867188 C235.85443197 633.92124628 237.52144223 656.49929526 239.73345947 679.15777588 C241.80701526 700.41994121 243.71892496 721.671717 245 743 C245.05820923 743.94980743 245.11641846 744.89961487 245.1763916 745.87820435 C246.09878393 761.41630638 246.18757011 776.95980144 246.18530273 792.52026367 C246.18522165 795.28953608 246.1921577 798.05864242 246.20581055 800.82788086 C246.57003261 876.01390493 231.88624051 956.29065776 179 1013 C178.30261719 1013.75152344 177.60523438 1014.50304687 176.88671875 1015.27734375 C166.3803396 1026.20628293 153.94573989 1034.28149769 141 1042 C139.91589844 1042.65871094 138.83179688 1043.31742188 137.71484375 1043.99609375 C136.75707031 1044.55425781 135.79929687 1045.11242188 134.8125 1045.6875 C133.58466797 1046.40486328 133.58466797 1046.40486328 132.33203125 1047.13671875 C129.49056174 1048.18858602 127.86788963 1047.84050051 125 1047 C124.67 1045.68 124.34 1044.36 124 1043 C127.6638738 1039.89188234 131.39957162 1037.58736381 135.625 1035.3125 C152.38560198 1025.97974175 164.18787723 1013.63958587 169.57348633 995.06030273 C169.83798584 994.09165283 170.10248535 993.12300293 170.375 992.125 C170.66463623 991.07707275 170.95427246 990.02914551 171.25268555 988.94946289 C173.85112099 979.19536828 175.88221453 969.34207955 177.8125 959.4375 C177.95943298 958.688172 178.10636597 957.93884399 178.25775146 957.16680908 C185.00452257 922.48230243 183.9739285 891.21054727 176 857 C175.65919717 855.5166723 175.31870026 854.03327428 174.97851562 852.54980469 C172.46835315 841.66195808 169.76686707 830.82512819 167 820 C166.77550171 819.12087952 166.55100342 818.24175903 166.31970215 817.33599854 C161.35818582 797.93275568 156.28552665 778.56199977 150.93557739 759.26202393 C137.45060368 710.60738621 131.47832685 662.46142493 130 612 C99.38429851 702.30776752 101.76018094 794.30679147 131.5625 885 C152.5002234 948.86602846 152.5002234 948.86602846 142.078125 972.05078125 C140.38430516 974.78043707 138.68595313 976.20936458 136 978 C132.8125 978.125 132.8125 978.125 130 978 C129.90203125 976.741875 129.8040625 975.48375 129.703125 974.1875 C127.1923428 944.4322464 115.13197596 922.13315849 100 897 C99.42491699 896.04448242 98.84983398 895.08896484 98.25732422 894.10449219 C97.23457276 892.40678189 96.21163401 890.7091844 95.18847656 889.01171875 C94.7137793 888.22410156 94.23908203 887.43648437 93.75 886.625 C93.2765918 885.83996094 92.80318359 885.05492187 92.31542969 884.24609375 C79.03788595 862.13803049 66.36372611 839.46967278 55.10449219 816.26220703 C53.80631042 813.60328744 52.48401755 810.95676989 51.1640625 808.30859375 C40.06975998 785.85352781 30.36965178 762.66908216 26.4375 737.8125 C26.22770508 736.51747559 26.01791016 735.22245117 25.80175781 733.88818359 C21.234818 705.29334485 17.84699098 675.92902303 21 647 C20.34257812 648.13050781 19.68515625 649.26101563 19.0078125 650.42578125 C5.25234992 673.83576032 -9.48252507 697.96339765 -28.05078125 717.8984375 C-29.79527706 719.77927667 -31.43467568 721.70618031 -33.0625 723.6875 C-36.35925248 727.55018002 -40.11935135 730.73972715 -44 734 C-44.84046875 734.73992188 -45.6809375 735.47984375 -46.546875 736.2421875 C-65.04936802 752.24019942 -87.35152464 767.41495553 -112.66015625 767.30078125 C-115.3218594 766.95862575 -116.86366814 766.65101817 -119 765 C-119.75 761.875 -119.75 761.875 -120 759 C-118.98421875 758.57589844 -117.9684375 758.15179687 -116.921875 757.71484375 C-87.79323626 745.38804459 -66.86459194 726.22097929 -54.76580811 696.61997986 C-52.51682793 690.75688471 -50.8470709 684.92648453 -49.5 678.796875 C-49.28816574 677.84728912 -49.07633148 676.89770325 -48.858078 675.91934204 C-46.7982625 666.45954588 -45.24835745 656.93633191 -43.77584839 647.3704834 C-38.19957208 611.32062649 -31.90055047 575.20395074 -22.74267578 539.87109375 C-21.46254965 534.92228265 -20.23510414 529.96020459 -19 525 C-19.85078125 525.69222656 -20.7015625 526.38445313 -21.578125 527.09765625 C-31.3801871 535.02911685 -41.3991054 542.64109258 -51.52392578 550.15478516 C-53.80561088 551.85513775 -56.07450426 553.57093604 -58.33984375 555.29296875 C-106.40729557 591.59424954 -156.1043799 621.67564153 -218 620 C-218.495 617.03 -218.495 617.03 -219 614 C-214.15092143 612.26818622 -209.38399061 610.83680792 -204.35473633 609.71533203 C-180.2531646 604.22368879 -162.4199221 588.70267239 -149.43359375 568.109375 C-142.64274169 556.89275144 -137.82032208 544.83443962 -133.3203125 532.5546875 C-132.67215073 530.79525314 -132.67215073 530.79525314 -132.01089478 529.00027466 C-128.20234583 518.62680682 -124.50342758 508.21542755 -120.82250977 497.79614258 C-73.2367183 363.10838877 -73.2367183 363.10838877 -32 321 C-31.2894043 320.27425781 -30.57880859 319.54851562 -29.84667969 318.80078125 C-27.48823442 316.40169023 -25.12156066 314.011125 -22.75 311.625 C-22.00540527 310.87557129 -21.26081055 310.12614258 -20.49365234 309.35400391 C-15.82312993 304.69801523 -11.00205869 300.29527364 -6 296 C-4.78509661 294.93123343 -3.57152803 293.86094741 -2.359375 292.7890625 C5.18701558 286.15932097 12.84825099 279.87472415 21 274 C20.03574097 274.13631836 20.03574097 274.13631836 19.05200195 274.27539062 C2.32837463 276.53906599 -14.19801445 277.32871668 -31.0625 277.375 C-32.47177261 277.38623901 -32.47177261 277.38623901 -33.90951538 277.39770508 C-70.89516549 277.63972344 -103.1365174 267.32808813 -130.44921875 241.71484375 C-136.25877231 235.53162824 -142.14230396 228.68092352 -143 220 C-140.77480676 219.24844467 -139.45111607 218.85993184 -137.17578125 219.56640625 C-133.56906186 221.49452668 -130.16985955 223.53595722 -126.8125 225.875 C-109.86730076 237.34559641 -87.2412998 243.05994791 -66.9296875 239.3515625 C-29.01355741 231.12895723 8.60882928 206.87819067 42.57275391 188.61669922 C82.61259722 167.12403946 124.83041766 150.52035109 170 144 C169.17201904 143.8047876 168.34403809 143.6095752 167.4909668 143.40844727 C125.40167538 133.40183211 82.60188532 120.44046719 49 92 C48.11570312 91.26265625 47.23140625 90.5253125 46.3203125 89.765625 C38.80281745 83.24904289 32.81351359 76.01790216 27 68 C26.36795654 67.1322998 26.36795654 67.1322998 25.72314453 66.24707031 C12.81787537 48.29760965 -1.84348472 24.92078034 -1 2 C-0.67 1.34 -0.34 0.68 0 0 Z" transform="translate(219,0)"/></svg>