<svg width="154" height="155" viewBox="0 0 154 155" fill="none" xmlns="http://www.w3.org/2000/svg">
<path fill-rule="evenodd" clip-rule="evenodd" d="M67.3835 0.31601C47.4865 3.25801 27.1725 15.111 16.0765 30.254C8.02053 41.248 4.58253 48.963 1.90153 62.068C-0.624467 74.412 -0.631467 79.986 1.86653 92.128C8.81153 125.877 34.1465 149.489 68.0845 153.841C82.8905 155.74 99.4955 152.621 112.884 145.427C123.911 139.501 136.995 127.196 141.469 118.543L142.935 115.708H130.939H118.943L114.163 120.185C105.072 128.7 89.7315 134.708 77.0815 134.708H70.7385L71.0615 113.958C71.3805 93.402 71.4095 93.164 74.1265 88.542C77.9795 81.988 82.4805 77.792 88.8775 74.791C94.3455 72.226 94.5865 72.206 123.754 71.878L153.124 71.547L152.465 65.724C150.492 48.285 138.833 27.814 124.495 16.616C116.618 10.465 106.376 5.23901 97.3355 2.75901C89.7025 0.664011 73.7975 -0.63299 67.3835 0.31601ZM94.3835 22.919C106.295 26.82 118.493 36.272 124.916 46.579L127.8 51.208L110.092 51.798C95.8555 52.272 91.1005 52.806 85.8415 54.524C70.4625 59.545 58.3475 71.781 53.0385 87.652C51.1725 93.231 50.8835 96.352 50.8835 110.902C50.8835 120.145 50.6275 127.708 50.3135 127.708C50.0005 127.708 47.8625 126.399 45.5635 124.798C27.0045 111.88 17.6885 90.699 20.7845 68.458C23.5025 48.933 37.2205 31.713 56.2025 24C67.1525 19.551 82.7495 19.109 94.3835 22.919Z" fill="white"/>
</svg>
